<svg width="45" height="45" viewBox="0 0 45 45" fill="none" xmlns="http://www.w3.org/2000/svg">
<path fill-rule="evenodd" clip-rule="evenodd" d="M41.25 22.5C41.25 32.8553 32.8553 41.25 22.5 41.25C12.1447 41.25 3.75 32.8553 3.75 22.5C3.75 12.1447 12.1447 3.75 22.5 3.75C32.8553 3.75 41.25 12.1447 41.25 22.5ZM23.1719 17.5921C21.3482 18.3506 17.7033 19.9206 12.2373 22.3021C11.3497 22.6551 10.8847 23.0004 10.8424 23.338C10.7709 23.9086 11.4855 24.1333 12.4585 24.4393C12.5909 24.4809 12.728 24.524 12.8686 24.5697C13.826 24.8809 15.1138 25.245 15.7832 25.2595C16.3905 25.2726 17.0683 25.0222 17.8166 24.5084C22.9236 21.061 25.5599 19.3185 25.7254 19.2809C25.8422 19.2544 26.004 19.2211 26.1137 19.3185C26.2233 19.416 26.2125 19.6005 26.2009 19.65C26.1301 19.9518 23.3252 22.5595 21.8736 23.9091C21.4211 24.3298 21.1001 24.6282 21.0345 24.6963C20.8875 24.849 20.7377 24.9934 20.5937 25.1322C19.7043 25.9896 19.0373 26.6326 20.6306 27.6825C21.3963 28.1871 22.0089 28.6043 22.6202 29.0206C23.2877 29.4751 23.9535 29.9286 24.815 30.4933C25.0345 30.6371 25.2441 30.7866 25.4482 30.9321C26.2251 31.4859 26.923 31.9835 27.7853 31.9042C28.2863 31.858 28.8038 31.3869 29.0666 29.9818C29.6878 26.6612 30.9088 19.4664 31.1909 16.5015C31.2157 16.2418 31.1846 15.9093 31.1596 15.7634C31.1346 15.6175 31.0824 15.4096 30.8927 15.2556C30.6681 15.0734 30.3213 15.0349 30.1662 15.0376C29.4609 15.0501 28.379 15.4263 23.1719 17.5921Z" fill="black"/>
</svg>
