<svg width="45" height="45" viewBox="0 0 45 45" fill="none" xmlns="http://www.w3.org/2000/svg">
<path d="M37.4109 14.8501C37.4337 15.1807 37.4337 15.5113 37.4337 15.8449C37.4337 26.011 29.6945 37.7355 15.5431 37.7355V37.7295C11.3627 37.7356 7.2692 36.5381 3.75 34.2803C4.35786 34.3535 4.96877 34.39 5.5812 34.3916C9.04555 34.3946 12.4109 33.2322 15.1363 31.0917C11.8441 31.0293 8.95719 28.8827 7.94866 25.749C9.10192 25.9714 10.2902 25.9257 11.4222 25.6164C7.83288 24.8913 5.25061 21.7377 5.25061 18.0753C5.25061 18.0418 5.25061 18.0098 5.25061 17.9778C6.32008 18.5735 7.51752 18.904 8.74238 18.9406C5.36182 16.6813 4.31977 12.1841 6.36121 8.66791C10.2674 13.4744 16.0306 16.3964 22.2174 16.7057C21.5973 14.0335 22.4444 11.2334 24.4432 9.35499C27.5419 6.44213 32.4154 6.59143 35.3283 9.68863C37.0513 9.3489 38.7028 8.71666 40.214 7.82087C39.6397 9.60179 38.4377 11.1146 36.832 12.0759C38.3569 11.8961 39.8469 11.4878 41.25 10.8647C40.2171 12.4126 38.9161 13.7608 37.4109 14.8501Z" fill="black"/>
</svg>
